<svg width="16" height="16" viewBox="0 0 16 16" fill="none" xmlns="http://www.w3.org/2000/svg">
<rect width="16" height="16" rx="8" fill="black"/>
<path d="M5.94171 11L4.44428 6.42564C4.46889 6.58701 4.49761 6.79487 4.53043 7.04923C4.56325 7.30085 4.5906 7.5812 4.61248 7.89026C4.6371 8.19932 4.64941 8.52068 4.64941 8.85436V11H3.50479V5.31385H5.18274L6.63505 9.86359C6.59129 9.60376 6.54616 9.27145 6.49966 8.86667C6.45317 8.46188 6.42992 8.00376 6.42992 7.49231V5.31385H7.57453V11H5.94171ZM12.4595 5.31385L12.7795 11H11.6062L11.5364 8.56718C11.5282 8.26632 11.5255 8.00513 11.5282 7.78359C11.5337 7.56205 11.5432 7.35009 11.5569 7.14769C11.5706 6.94256 11.587 6.71282 11.6062 6.45846L10.9662 10.0318H9.94872L9.25949 6.45846C9.28137 6.69641 9.29915 6.92068 9.31282 7.13128C9.3265 7.33915 9.3347 7.55795 9.33744 7.78769C9.34291 8.01744 9.34291 8.2841 9.33744 8.58769L9.29641 11H8.14359L8.46359 5.31385H9.84615L10.4779 8.98974L11.0769 5.31385H12.4595Z" fill="white"/>
</svg>
